o earRight_mesh asset
usemtl earLeft_meshSG
v -0.08809799700975418 0.039886891297524193 -0.00894541402575734
v 0.007133000064641237 0.044630892030422906 -0.06984341440019372
v -0.0346359983086586 0.09690589403313897 -0.025994413692925003
v 0.007133000064641237 0.044630892030422906 -0.06984341440019372
v -0.08809799700975418 0.039886891297524193 -0.00894541402575734
v -0.04632899910211563 -0.012388109424623331 -0.05279341449258092
vt 0.002193999942392111 0.9968010187149048
vt 0.995606005191803 0.0013640000252053142
vt 0.995606005191803 0.9968010187149048
vt 0.995606005191803 0.0013640000252053142
vt 0.002193999942392111 0.9968010187149048
vt 0.002193999942392111 0.0013640000252053142
vn 0.529919020234018 -0.25501298517117865 0.808798002834022
vn 0.529919020234018 -0.25501298517117865 0.808798002834022
vn 0.529919020234018 -0.25501298517117865 0.808798002834022
vn 0.529919020234018 -0.25501298517117865 0.808798002834022
vn 0.529919020234018 -0.25501298517117865 0.808798002834022
vn 0.529919020234018 -0.25501298517117865 0.808798002834022
f 1/1/1 2/2/2 3/3/3
f 4/4/4 5/5/5 6/6/6
