o earLeft_mesh asset
usemtl earLeft_meshSG
v -0.019560774972986097 -0.03059115778539749 -0.011188036057881212
v 0.06968213599329103 0.06065295305218128 -0.012081556249193048
v -0.023051524719547148 0.05733926262821583 -0.012195782031647062
v 0.06968213599329103 0.06065295305218128 -0.012081556249193048
v -0.019560774972986097 -0.03059115778539749 -0.011188036057881212
v 0.07317373138074983 -0.027278154677492103 -0.011073543917170858
vt 0.9930350184440613 0.006372999865561724
vt 0.00596599979326129 0.994333028793335
vt 0.9930350184440613 0.994333028793335
vt 0.00596599979326129 0.994333028793335
vt 0.9930350184440613 0.006372999865561724
vt 0.00596599979326129 0.006372999865561724
vn -0.0016410916226367654 0.011397631594686602 0.9999336982081953
vn -0.0016410916226367654 0.011397631594686602 0.9999336982081953
vn -0.0016410916226367654 0.011397631594686602 0.9999336982081953
vn -0.0016410916226367654 0.011397631594686602 0.9999336982081953
vn -0.0016410916226367654 0.011397631594686602 0.9999336982081953
vn -0.0016410916226367654 0.011397631594686602 0.9999336982081953
f 1/1/1 2/2/2 3/3/3
f 4/4/4 5/5/5 6/6/6
