o Plane
usemtl nose_meshSG
v -0.033077930636964153 0.09202771273532125 -0.028154227439574277
v -0.033077930636964153 0.02254652184524747 -0.001935309753082072
v 0.03692206966105907 0.09202771273532125 -0.028154227439574277
v -0.033077930636964153 0.02254652184524747 -0.001935309753082072
v 0.03692206966105907 0.02254652184524747 -0.001935309753082072
v 0.03692206966105907 0.09202771273532125 -0.028154227439574277
vt 0 1
vt 0 0
vt 1 1
vt 0 0
vt 1 0
vt 1 1
vn 0 0.3530525631374595 0.9356034884832732
vn 0 0.3530525631374595 0.9356034884832732
vn 0 0.3530525631374595 0.9356034884832732
vn 0 0.3530525631374595 0.9356034884832732
vn 0 0.3530525631374595 0.9356034884832732
vn 0 0.3530525631374595 0.9356034884832732
f 1/1/1 2/2/2 3/3/3
f 4/4/4 5/5/5 6/6/6
